<svg xmlns="http://www.w3.org/2000/svg" xmlns:xlink="http://www.w3.org/1999/xlink" width="38.914" height="37.226" viewBox="0 0 38.914 37.226">
  <defs>
    <linearGradient id="linear-gradient" x1="0.848" y1="0.191" x2="0.077" y2="0.854" gradientUnits="objectBoundingBox">
      <stop offset="0" stop-color="#7823b7"/>
      <stop offset="1" stop-color="#3a7aed"/>
    </linearGradient>
  </defs>
  <path id="path0" d="M1.979-.04A1.536,1.536,0,0,0,1.187,1.7c.077.276,3.311,5.9,3.529,6.137a1.8,1.8,0,0,0,.391.3l.236.127,16.139.017c17.68.018,16.454.045,16.915-.362.8-.708.777-.864-.8-4.473C36.223.308,36.155.186,35.673-.038c-.366-.17-33.321-.172-33.693,0m8.756,13.258c-.553.171-.474.045-5.054,7.992-4.528,7.856-4.44,7.695-4.438,8.167,0,.405-.028.348,2,3.871,2.28,3.954,2.161,3.807,3.07,3.805.978,0,.6.549,5.665-8.237,4.839-8.392,4.541-7.93,5.21-8.075.188-.041,2.721-.062,7.524-.062h7.24l.3-.139a1.551,1.551,0,0,0,.447-.317c.319-.379,2.94-5.01,3-5.308a1.511,1.511,0,0,0-.828-1.65c-.281-.15-23.661-.2-24.141-.048m-8.6.474a2.923,2.923,0,1,0,3.38,4.147,2.925,2.925,0,0,0-3.38-4.147" transform="translate(-0.003 0.166)" fill-rule="evenodd" fill="url(#linear-gradient)"/>
</svg>
